<svg xmlns="http://www.w3.org/2000/svg" xmlns:xlink="http://www.w3.org/1999/xlink" viewBox="0 0 428.03 87.87"><defs><style>.cls-1{fill:none;}.cls-2{clip-path:url(#clip-path);}.cls-3{fill:#fff;}</style><clipPath id="clip-path" transform="translate(-302.97 -922.58)"><rect class="cls-1" width="1080" height="1920"/></clipPath></defs><g id="Layer_2" data-name="Layer 2"><g id="Layer_1-2" data-name="Layer 1"><g class="cls-2"><path class="cls-3" d="M391.68,1007H401V958.69h-9.27V957H411.3v50h9.27v1.69H391.68Zm7.82-78a6.37,6.37,0,1,1,1.87,4.52A6.14,6.14,0,0,1,399.5,929" transform="translate(-302.97 -922.58)"/><path class="cls-3" d="M477.62,995.4a34.46,34.46,0,0,1-1.38,3.79,17.51,17.51,0,0,1-3.25,4.94,19.77,19.77,0,0,1-6,4.33,22.33,22.33,0,0,1-9.81,1.87,33.93,33.93,0,0,1-9.51-1.45,26.9,26.9,0,0,1-9-4.63,24.1,24.1,0,0,1-6.68-8.37,28.41,28.41,0,0,1-2.59-12.76,26.77,26.77,0,0,1,2.23-11,28,28,0,0,1,6-8.79,27.45,27.45,0,0,1,8.91-5.84,28.39,28.39,0,0,1,10.89-2.1,30.08,30.08,0,0,1,6.68.78,22.32,22.32,0,0,1,6.26,2.41,14.7,14.7,0,0,1,4.69,4.21,10.49,10.49,0,0,1,1.87,6.32,5.63,5.63,0,0,1-1.62,4.15,6.3,6.3,0,0,1-4.64,1.63,8.76,8.76,0,0,1-3.91-.91,3.14,3.14,0,0,1-1.87-3.07,12.63,12.63,0,0,1,.85-4.09,12.6,12.6,0,0,0,.84-4,4.67,4.67,0,0,0-2.77-4.27,13.08,13.08,0,0,0-6.38-1.51,24.1,24.1,0,0,0-5.48.66,10.06,10.06,0,0,0-5.17,3.31A20.3,20.3,0,0,0,442.9,969a54.66,54.66,0,0,0-1.51,14.44,68.34,68.34,0,0,0,.66,9.75,25.79,25.79,0,0,0,2.41,8,13.67,13.67,0,0,0,4.82,5.41,14.43,14.43,0,0,0,8,2,21.18,21.18,0,0,0,8.73-1.56,15.92,15.92,0,0,0,8.36-8.31c.64-1.52,1.13-2.77,1.45-3.73Z" transform="translate(-302.97 -922.58)"/><path class="cls-3" d="M483.88,957h9.27V941.47c.64.24,1.24.44,1.8.61a12,12,0,0,0,2.89.24,10.36,10.36,0,0,0,3.13-.42,8.1,8.1,0,0,0,2.53-1.39V957h17.09v1.69H503.5v39.36a18.84,18.84,0,0,0,.66,5.48,8.37,8.37,0,0,0,1.75,3.25,5.21,5.21,0,0,0,2.34,1.5,9.06,9.06,0,0,0,2.47.36,8.44,8.44,0,0,0,6.8-3.07,14.77,14.77,0,0,0,3.31-7l1.69.6a28,28,0,0,1-1.08,3.49,12.3,12.3,0,0,1-2.23,3.67,11.69,11.69,0,0,1-3.91,2.89,14,14,0,0,1-6,1.15q-9,0-12.58-3.5T493.15,997V958.69h-9.27Z" transform="translate(-302.97 -922.58)"/><path class="cls-3" d="M527.33,982.88a23.62,23.62,0,0,1,2.59-11,30.45,30.45,0,0,1,15.65-14.45,24.61,24.61,0,0,1,19.62,0,30.45,30.45,0,0,1,15.65,14.45,23.75,23.75,0,0,1,2.59,11A24.25,24.25,0,0,1,581,993.53a29.85,29.85,0,0,1-15.29,14.63,25.77,25.77,0,0,1-20.7,0,30.11,30.11,0,0,1-9-5.9,29.65,29.65,0,0,1-6.32-8.73,24.12,24.12,0,0,1-2.41-10.65m12,0a55.89,55.89,0,0,0,1.32,13.6,21,21,0,0,0,3.5,7.77,10.07,10.07,0,0,0,5,3.55,22.86,22.86,0,0,0,12.28,0,10.07,10.07,0,0,0,5.05-3.55,21,21,0,0,0,3.5-7.77,55.89,55.89,0,0,0,1.32-13.6,64.09,64.09,0,0,0-1-12.1,22.92,22.92,0,0,0-2.95-7.94,11.35,11.35,0,0,0-5-4.39,19.62,19.62,0,0,0-14.2,0,11.35,11.35,0,0,0-5,4.39,22.72,22.72,0,0,0-2.95,7.94,64.09,64.09,0,0,0-1,12.1" transform="translate(-302.97 -922.58)"/><path class="cls-3" d="M592.09,1007h9.27V958.69h-9.27V957h19.38v12.16h.24a24.63,24.63,0,0,1,1.57-4.09,17.69,17.69,0,0,1,3-4.4,17.21,17.21,0,0,1,4.63-3.55,13.82,13.82,0,0,1,6.56-1.44,11.91,11.91,0,0,1,4.82.9,10.55,10.55,0,0,1,3.37,2.29,8.34,8.34,0,0,1,1.92,3.19,11.35,11.35,0,0,1,.61,3.61c0,2.65-.61,4.41-1.81,5.29a6.9,6.9,0,0,1-4.21,1.33c-3.54,0-5.3-1.12-5.3-3.37a5.27,5.27,0,0,1,.24-1.75q.24-.66.54-1.32a10.51,10.51,0,0,0,.54-1.51,9.22,9.22,0,0,0,.24-2.4q0-3.86-4.21-3.85a7.47,7.47,0,0,0-4.09,1.44,15,15,0,0,0-4,4.21,26.37,26.37,0,0,0-3.13,6.68,29.25,29.25,0,0,0-1.27,9V1007h10.48v1.68h-30.1Z" transform="translate(-302.97 -922.58)"/><path class="cls-3" d="M641.2,1007h9.27V958.69H641.2V957h19.62v50h9.27v1.69H641.2ZM649,929a6.35,6.35,0,1,1,1.86,4.52A6.17,6.17,0,0,1,649,929" transform="translate(-302.97 -922.58)"/><path class="cls-3" d="M731,1007.32a16.74,16.74,0,0,1-3.73,2.1,13.83,13.83,0,0,1-5.3.91c-3.85,0-6.64-.83-8.37-2.47a13.21,13.21,0,0,1-3.55-6.92h-.24q-.48,1.08-1.32,2.7a10.65,10.65,0,0,1-2.59,3.13,14.24,14.24,0,0,1-4.63,2.53,22.41,22.41,0,0,1-7.35,1,23.23,23.23,0,0,1-8.06-1.15,13,13,0,0,1-4.69-2.83,8.1,8.1,0,0,1-2.23-3.79,15.8,15.8,0,0,1-.54-3.91,12,12,0,0,1,1.68-6.74,12.36,12.36,0,0,1,4.4-4,28.55,28.55,0,0,1,6-2.47c2.21-.64,4.44-1.33,6.68-2q4-1.32,6.56-2.28a11.86,11.86,0,0,0,4-2.35,7.21,7.21,0,0,0,2-3.49,24,24,0,0,0,.54-5.72,33.59,33.59,0,0,0-.36-5.18,11,11,0,0,0-1.32-3.91,6.23,6.23,0,0,0-2.77-2.47,11.53,11.53,0,0,0-4.81-.84,13.72,13.72,0,0,0-6.56,1.39,4.72,4.72,0,0,0-2.59,4.51,22.46,22.46,0,0,0,.36,4,18.45,18.45,0,0,1,.36,3,3.74,3.74,0,0,1-1.2,2.83,4.92,4.92,0,0,1-3.5,1.14c-2.64,0-4.29-.48-4.93-1.44a6.62,6.62,0,0,1-1-3.73,11.21,11.21,0,0,1,1.2-5.06,12.76,12.76,0,0,1,3.55-4.27,17.73,17.73,0,0,1,5.9-3,28,28,0,0,1,8.13-1.08,26.9,26.9,0,0,1,9.26,1.38,16,16,0,0,1,6,3.73,13.49,13.49,0,0,1,3.25,5.3,19.91,19.91,0,0,1,1,6.2v30c0,2.33.36,3.89,1.08,4.69a4,4,0,0,0,3.13,1.21,8.83,8.83,0,0,0,2.77-.48A9.9,9.9,0,0,0,730,1006Zm-21.07-28.17h-.24c-.16,1-1.48,2.09-4,3.13l-9,3.61a13.2,13.2,0,0,0-5.9,4.39,11.76,11.76,0,0,0-2,7.05,20.36,20.36,0,0,0,.36,3.73,9.66,9.66,0,0,0,1.32,3.43,7.44,7.44,0,0,0,2.71,2.46,9.21,9.21,0,0,0,4.52,1,11.18,11.18,0,0,0,6.44-1.69,11.06,11.06,0,0,0,3.73-4.21,17.85,17.85,0,0,0,1.68-5.48,38.19,38.19,0,0,0,.42-5.35Z" transform="translate(-302.97 -922.58)"/><polygon class="cls-3" points="0 0.36 37.2 0.36 37.2 2.05 23.83 2.05 50.56 71.86 76.92 2.05 63.8 2.05 63.8 0.36 89.8 0.36 89.8 2.05 78.96 2.05 46.58 87.87 43.57 87.87 10.83 2.05 0 2.05 0 0.36"/></g></g></g></svg>