<svg xmlns="http://www.w3.org/2000/svg" viewBox="0 0 26.99 27"><defs><style>.cls-1{fill:#606060;}</style></defs><title>account</title><g id="Layer_2" data-name="Layer 2"><g id="Layer_1-2" data-name="Layer 1"><path class="cls-1" d="M13.47,27H.85C.2,27,0,26.79,0,26.13A12.15,12.15,0,0,1,9.5,14.45a9.53,9.53,0,0,1,2-.27,24,24,0,0,1,6.28.31,12.2,12.2,0,0,1,9,9.72A17.52,17.52,0,0,1,27,26.14c0,.6-.25.86-.85.86Zm12.26-1.3c-.06-.47-.11-.89-.18-1.32a10.86,10.86,0,0,0-8.94-8.8A11.09,11.09,0,0,0,15,15.44a34.53,34.53,0,0,0-4.32.11,10.77,10.77,0,0,0-9.13,8.38c-.13.57-.18,1.16-.27,1.77Z"/><path class="cls-1" d="M19.92,6.42A6.42,6.42,0,1,1,13.39,0,6.42,6.42,0,0,1,19.92,6.42ZM13.51,1.28a5.14,5.14,0,1,0,5.13,5.26A5.17,5.17,0,0,0,13.51,1.28Z"/></g></g></svg>