<svg xmlns="http://www.w3.org/2000/svg" viewBox="0 0 46.49 46.66"><defs><style>.cls-1{fill:#333;}</style></defs><title>Asset 12</title><g id="Layer_2" data-name="Layer 2"><g id="Layer_1-2" data-name="Layer 1"><path class="cls-1" d="M18.51,0h2.55a1.09,1.09,0,0,0,.3.07,20.29,20.29,0,0,1,4.94,1,19.86,19.86,0,0,1,13.26,18.1,21,21,0,0,1-2.14,9.5.53.53,0,0,0,.14.73c2.41,2.39,4.83,4.79,7.22,7.21a5.93,5.93,0,0,1-1.51,9.45,13.21,13.21,0,0,1-1.71.58H40.2A7.68,7.68,0,0,1,35.86,44c-2.09-2.16-4.25-4.25-6.36-6.4a.68.68,0,0,0-.92-.15c-5.67,2.65-11.43,3-17.11.23C4.39,34.3.56,28.53,0,20.69A18.6,18.6,0,0,1,3.29,8.87,19.41,19.41,0,0,1,16.13.35C16.92.2,17.71.12,18.51,0Zm1.25,34.91A15.13,15.13,0,1,0,4.66,19.77,15.1,15.1,0,0,0,19.76,34.91Z"/></g></g></svg>