<svg xmlns="http://www.w3.org/2000/svg" viewBox="0 0 58.84 50.85"><defs><style>.cls-1{fill:#333;}</style></defs><title>Asset 13</title><g id="Layer_2" data-name="Layer 2"><g id="Layer_1-2" data-name="Layer 1"><path class="cls-1" d="M58.83,8.06a9.2,9.2,0,0,0-.22-2.14A7.64,7.64,0,0,0,50.94,0H7.9A7.71,7.71,0,0,0,0,7.83Q0,22,0,36.15A7.67,7.67,0,0,0,7.8,44h4.05c.74,1.17,1.49,2.34,2.24,3.51l.73,1.13a4.52,4.52,0,0,0,3.78,2.26h0a4.54,4.54,0,0,0,3.78-2.35l.69-1.12c.68-1.12,1.39-2.27,2.09-3.49h0q12.81,0,25.6,0a7.69,7.69,0,0,0,8-8V34Q58.84,21,58.83,8.06Zm-3,27.8a4.72,4.72,0,0,1-5,5q-12.78,0-25.58,0a2.78,2.78,0,0,0-2.59,1.46c-.66,1.16-1.37,2.33-2.07,3.46l-.69,1.13a1.65,1.65,0,0,1-1.25.91c-.44,0-.91-.31-1.27-.88l-.74-1.14c-.8-1.24-1.6-2.48-2.38-3.74a2.33,2.33,0,0,0-2.09-1.15h0c-1.43,0-2.85,0-4.28,0A4.68,4.68,0,0,1,3,36.15Q3,22,3,7.83A4.72,4.72,0,0,1,7.91,3h43a4.67,4.67,0,0,1,4.75,3.63,5.85,5.85,0,0,1,.14,1.43q0,13,0,25.91Z"/><path class="cls-1" d="M38.61,13.53H20.29a2.86,2.86,0,0,0-3,2.84,2.78,2.78,0,0,0,.79,2,3.14,3.14,0,0,0,2.27.88H38.58a3.08,3.08,0,0,0,2.21-.87,2.83,2.83,0,0,0,.8-2A2.88,2.88,0,0,0,38.61,13.53Z"/><path class="cls-1" d="M38.67,23.87H27.25c-2.32,0-4.64,0-7,0a3.67,3.67,0,0,0-1.82.53,2.72,2.72,0,0,0-1.07,3.16,2.84,2.84,0,0,0,2.8,2H38.52a2.89,2.89,0,0,0,2.83-1.74,2.8,2.8,0,0,0-.2-2.65A3,3,0,0,0,38.67,23.87Z"/></g></g></svg>