<svg xmlns="http://www.w3.org/2000/svg" viewBox="0 0 53.04 53.07"><defs><style>.cls-1{fill:#333;}</style></defs><title>Asset 14</title><g id="Layer_2" data-name="Layer 2"><g id="Layer_1-2" data-name="Layer 1"><path class="cls-1" d="M13.41,27.58A16.9,16.9,0,0,1,37.4,4a16.39,16.39,0,0,1,5.92,11.37,16.57,16.57,0,0,1-3.64,12.11c1.6,1.21,3.27,2.29,4.72,3.62A25.77,25.77,0,0,1,53,48.43c.06.75.1,1.51.09,2.26a2.39,2.39,0,0,1-2.32,2.38,2.42,2.42,0,0,1-2.46-2.18,44.35,44.35,0,0,0-.66-5.3A21.05,21.05,0,0,0,36.05,31.2a.78.78,0,0,0-.65,0,16.68,16.68,0,0,1-17.75,0,.83.83,0,0,0-.64,0,21.23,21.23,0,0,0-11.9,16c-.21,1.22-.2,2.48-.32,3.71a2.26,2.26,0,0,1-1.49,2,2.29,2.29,0,0,1-2.48-.42A2.3,2.3,0,0,1,0,50.61a26.4,26.4,0,0,1,13-22.8C13.16,27.75,13.26,27.67,13.41,27.58ZM26.5,28.93a12.06,12.06,0,1,0-12-12.11A12.05,12.05,0,0,0,26.5,28.93Z"/></g></g></svg>