<svg xmlns="http://www.w3.org/2000/svg" viewBox="0 0 51.98 52.01"><defs><style>.cls-1{fill:#333;}</style></defs><title>Asset 11</title><g id="Layer_2" data-name="Layer 2"><g id="Layer_1-2" data-name="Layer 1"><path class="cls-1" d="M46.43,30.91a2.31,2.31,0,0,0-4.55.66q0,3.6,0,7.2v3.6a5,5,0,0,1-1.45,3.56,5,5,0,0,1-3.57,1.44H15.12a4.92,4.92,0,0,1-5-5V39.68c0-2.67,0-5.34,0-8A3.08,3.08,0,0,0,9.51,30,2.14,2.14,0,0,0,7,29.31a2.31,2.31,0,0,0-1.51,2.23q0,5.46,0,10.92A9.58,9.58,0,0,0,15,52H37.14a9.61,9.61,0,0,0,9.37-9.43q0-4.78,0-9.59V31.71A3.11,3.11,0,0,0,46.43,30.91Z"/><path class="cls-1" d="M51.08,24.15,33.45,6.53,27.91,1C26.6-.33,25.38-.33,24.08,1L1,24.1l-.08.08-.31.31a2.33,2.33,0,0,0-.44,2.29A2.31,2.31,0,0,0,1.86,28.3a2.59,2.59,0,0,0,.47.05,2.65,2.65,0,0,0,1.86-.9L18.08,13.54l7.77-7.78A1.07,1.07,0,0,0,26,5.6l.17.19L47.67,27.32l.1.1a4.35,4.35,0,0,0,.38.36,2.3,2.3,0,0,0,3.71-1A2.47,2.47,0,0,0,51.08,24.15Z"/></g></g></svg>