<svg xmlns="http://www.w3.org/2000/svg" viewBox="0 0 26.11 18.09"><defs><style>.cls-1{fill:#606060;}</style></defs><title>By Email</title><g id="Layer_2" data-name="Layer 2"><g id="Layer_1-2" data-name="Layer 1"><path class="cls-1" d="M13.05,0h10.3A2.58,2.58,0,0,1,26.1,2.76q0,6.27,0,12.55a2.59,2.59,0,0,1-2.77,2.77q-10.27,0-20.55,0A2.59,2.59,0,0,1,0,15.32V2.71A2.57,2.57,0,0,1,2.21,0a3.44,3.44,0,0,1,.56,0ZM1.69,16.82a1.7,1.7,0,0,0,1,.27H23.39a1.22,1.22,0,0,0,.33,0c.24-.06.47-.15.75-.24L17.14,8.49c-.09.09-.17.15-.24.21l-3.39,3c-.37.33-.54.32-.91,0L9,8.51Zm11.36-6L24,1.1c-.41-.17-21.57-.17-22,0ZM1.2,1.63a4.81,4.81,0,0,0-.2.92q0,6.5,0,13a4.5,4.5,0,0,0,.06.53l7.19-8.2ZM17.88,7.84,25,16l.08,0c0-.17,0-.35,0-.53V2.67a1.51,1.51,0,0,0,0-.3c-.06-.22-.14-.45-.22-.71Z"/></g></g></svg>