<svg xmlns="http://www.w3.org/2000/svg" viewBox="0 0 22.33 27.23"><defs><style>.cls-1{fill:#606060;}</style></defs><title>Country</title><g id="Layer_2" data-name="Layer 2"><g id="Layer_1-2" data-name="Layer 1"><path class="cls-1" d="M1,0a1,1,0,0,1,.59,1.07c0,.36,0,.72,0,1.11h9.64c.72,0,1,.29,1,1V4.84h9.14a.9.9,0,0,1,.75.27.86.86,0,0,1,.09,1c-.61,1.52-1.21,3-1.83,4.55a.72.72,0,0,0,0,.61c.63,1.54,1.24,3.08,1.86,4.63A.8.8,0,0,1,21.73,17a1.16,1.16,0,0,1-.32,0H8.91A.83.83,0,0,1,8,16.14V14.49s0,0,0-.06H1.6V26.18a2.43,2.43,0,0,1,0,.27.81.81,0,0,1-.79.78.81.81,0,0,1-.8-.79,2.43,2.43,0,0,1,0-.27Q0,13.62,0,1.07A1,1,0,0,1,.59,0Zm.59,12.8h9v-9h-9ZM12.24,6.44v.34c0,2.21,0,4.41,0,6.62a1.16,1.16,0,0,1-.39.94c-.33.31-.64.64-1,1-.05,0-.08.1-.13.15h9.59l-.1-.27c-.5-1.24-1-2.49-1.5-3.74a1.17,1.17,0,0,1,0-1c.51-1.24,1-2.49,1.5-3.74l.1-.29Z"/></g></g></svg>