<svg xmlns="http://www.w3.org/2000/svg" viewBox="0 0 31 31.01"><defs><style>.cls-1{fill:#606060;}</style></defs><title>Currency</title><g id="Layer_2" data-name="Layer 2"><g id="Layer_1-2" data-name="Layer 1"><path class="cls-1" d="M31,14.59v1.82l-.06.32c-.09.67-.15,1.35-.29,2A15,15,0,0,1,24.9,27.8a15,15,0,0,1-12.66,2.84,14.92,14.92,0,0,1-9-5.71A15.08,15.08,0,0,1,.08,14,15,15,0,0,1,3.86,5.28a15.26,15.26,0,0,1,9-5C13.41.14,14,.08,14.59,0h1.82l.23.05a14.79,14.79,0,0,1,6.74,2.12,15.3,15.3,0,0,1,7.38,10.66C30.87,13.42,30.92,14,31,14.59Zm-1.94.93A13.57,13.57,0,1,0,15.47,29.07,13.58,13.58,0,0,0,29.06,15.52Z"/><path class="cls-1" d="M14.53,22.85c0-.63,0-.63-.61-.79a4.88,4.88,0,0,1-1.87-.95,1,1,0,1,1,1.17-1.54,3.71,3.71,0,0,0,4.21.25,2.34,2.34,0,0,0,.75-.72,1.34,1.34,0,0,0-.36-1.83,3.66,3.66,0,0,0-2.38-.8,5.51,5.51,0,0,1-2.93-.84,3.55,3.55,0,0,1-1.84-2.8,3.39,3.39,0,0,1,1.8-3.23,8.13,8.13,0,0,1,1.75-.71c.26-.09.33-.19.31-.43s0-.49,0-.73a1,1,0,0,1,1.93,0,4.45,4.45,0,0,1,0,.73c0,.29.09.38.35.43a4.83,4.83,0,0,1,2.09,1,1,1,0,1,1-1.17,1.53,3.86,3.86,0,0,0-4.25-.17A1.52,1.52,0,0,0,13.54,14a4.2,4.2,0,0,0,2.11.54,5.32,5.32,0,0,1,3.19,1.07,3.38,3.38,0,0,1-.31,5.79,9,9,0,0,1-1.75.72c-.26.08-.34.18-.32.43a5.77,5.77,0,0,1,0,.72,1,1,0,0,1-1,.95,1,1,0,0,1-1-.95Z"/></g></g></svg>