<svg xmlns="http://www.w3.org/2000/svg" viewBox="0 0 31.21 31.16"><defs><style>.cls-1{fill:#606060;}</style></defs><title>Help Center</title><g id="Layer_2" data-name="Layer 2"><g id="Layer_1-2" data-name="Layer 1"><path class="cls-1" d="M8.9,12.28c-.08.57-.17,1.38-.33,2.17a1.42,1.42,0,0,1-1.16,1.16c-.17,0-.34.1-.5.15-.91.28-1.14.58-.77,1.47a14.06,14.06,0,0,0,1.43,2.68,14.31,14.31,0,0,0,5.29,4.69,7.16,7.16,0,0,0,1.58.53.68.68,0,0,0,.87-.56c.08-.28.2-.56.27-.85a1.42,1.42,0,0,1,1.14-1.12,10.34,10.34,0,0,1,6.52.49c1.31.57,1.56,1.4,1.24,2.79a6,6,0,0,1-2.73,4,8.51,8.51,0,0,1-5.56,1.26,13.94,13.94,0,0,1-6.83-2.86,25.93,25.93,0,0,1-8-9.09,10,10,0,0,1-1-7.31A11.48,11.48,0,0,1,1.65,9c1-1.64,2.68-2.13,4.42-2.47A1.62,1.62,0,0,1,7.7,7.3a6.16,6.16,0,0,1,1,3C8.82,10.85,8.84,11.45,8.9,12.28ZM7.35,12.1H7.27a6.4,6.4,0,0,0,0-1.16c-.17-.82-.38-1.64-.62-2.44,0-.17-.35-.41-.48-.38-1.25.31-2.54.58-3.26,1.81a10.26,10.26,0,0,0-1,2,8.12,8.12,0,0,0,.67,6.2A24,24,0,0,0,11.9,28a10,10,0,0,0,5.94,1.54,5.38,5.38,0,0,0,5.08-3.92c.27-.89.21-1-.69-1.33a11.21,11.21,0,0,0-3.91-.44c-.82,0-1.33.23-1.55,1.16a2.09,2.09,0,0,1-2.42,1.66,4,4,0,0,1-1.18-.26,15.2,15.2,0,0,1-5.73-4.21,12.81,12.81,0,0,1-2.75-4.41c-.61-1.8,0-3,1.8-3.53.08,0,.19,0,.25-.08s.4-.31.43-.5A14.59,14.59,0,0,0,7.35,12.1Z"/><path class="cls-1" d="M16.38,0C23.92,0,29.92,5.12,31,12.12a14,14,0,0,1-3.37,11.69,1.3,1.3,0,0,1-.77.45.76.76,0,0,1-.61-1.16,4.74,4.74,0,0,1,.4-.49A12.37,12.37,0,0,0,28.88,10,12.27,12.27,0,0,0,19.1,1.77,12.44,12.44,0,0,0,8.38,4.71c-.52.44-1,.46-1.32,0a.75.75,0,0,1,.19-1.07A14,14,0,0,1,14,.3C15,.12,15.91.06,16.38,0Z"/><path class="cls-1" d="M17.61,13.6h3.11a.75.75,0,0,1,.85.73.72.72,0,0,1-.73.8q-2,0-4,0a.76.76,0,0,1-.77-.84q0-4.25,0-8.5A.77.77,0,0,1,16.83,5a.8.8,0,0,1,.77.89c0,1.46,0,2.92,0,4.39Z"/></g></g></svg>