<svg xmlns="http://www.w3.org/2000/svg" xmlns:xlink="http://www.w3.org/1999/xlink" viewBox="0 0 428.46 87.96"><defs><style>.cls-1{fill:url(#linear-gradient);}.cls-2{fill:url(#linear-gradient-2);}.cls-3{fill:url(#linear-gradient-3);}.cls-4{fill:url(#linear-gradient-4);}.cls-5{fill:url(#linear-gradient-5);}.cls-6{fill:url(#linear-gradient-6);}.cls-7{fill:url(#linear-gradient-7);}.cls-8{fill:url(#linear-gradient-8);}</style><linearGradient id="linear-gradient" x1="-21.41" y1="22.96" x2="452.64" y2="136.97" gradientUnits="userSpaceOnUse"><stop offset="0.02" stop-color="#f7931e"/><stop offset="0.16" stop-color="#f78e1d"/><stop offset="0.33" stop-color="#f7801b"/><stop offset="0.51" stop-color="#f76917"/><stop offset="0.7" stop-color="#f74811"/><stop offset="0.9" stop-color="#f71f0a"/><stop offset="1" stop-color="#f70606"/></linearGradient><linearGradient id="linear-gradient-2" x1="-19.54" y1="15.21" x2="454.5" y2="129.22" xlink:href="#linear-gradient"/><linearGradient id="linear-gradient-3" x1="-20.3" y1="18.37" x2="453.74" y2="132.38" xlink:href="#linear-gradient"/><linearGradient id="linear-gradient-4" x1="-16.02" y1="0.56" x2="458.03" y2="114.57" xlink:href="#linear-gradient"/><linearGradient id="linear-gradient-5" x1="-14.93" y1="-3.96" x2="459.11" y2="110.05" xlink:href="#linear-gradient"/><linearGradient id="linear-gradient-6" x1="-11.74" y1="-17.25" x2="462.31" y2="96.76" xlink:href="#linear-gradient"/><linearGradient id="linear-gradient-7" x1="-5.89" y1="-41.58" x2="468.16" y2="72.43" xlink:href="#linear-gradient"/><linearGradient id="linear-gradient-8" x1="-7.15" y1="-36.34" x2="466.9" y2="77.67" xlink:href="#linear-gradient"/></defs><title>               </title><g id="Layer_2" data-name="Layer 2"><g id="Layer_1-2" data-name="Layer 1"><path class="cls-1" d="M0,.36H37.23V2.05H23.86L50.61,71.93,77,2.05H63.86V.36h26V2.05H79L46.63,88h-3L10.84,2.05H0Z"/><path class="cls-2" d="M88.8,84.46h9.28V36.15H88.8V34.46h19.64v50h9.28v1.69H88.8ZM96.63,6.39A6.13,6.13,0,0,1,98.5,1.87a6.4,6.4,0,0,1,9,0,6.17,6.17,0,0,1,1.87,4.52,6.16,6.16,0,0,1-1.87,4.51,6.4,6.4,0,0,1-9,0A6.12,6.12,0,0,1,96.63,6.39Z"/><path class="cls-3" d="M174.83,72.9a34.46,34.46,0,0,1-1.38,3.79,17.42,17.42,0,0,1-3.26,4.94,19.62,19.62,0,0,1-6,4.34,22.38,22.38,0,0,1-9.82,1.87,33.59,33.59,0,0,1-9.52-1.45,26.69,26.69,0,0,1-9-4.64,24,24,0,0,1-6.69-8.37,28.45,28.45,0,0,1-2.59-12.77,27,27,0,0,1,2.23-11,28.2,28.2,0,0,1,6-8.79A27.58,27.58,0,0,1,143.68,35a28.5,28.5,0,0,1,10.91-2.11,30.19,30.19,0,0,1,6.69.79,22.32,22.32,0,0,1,6.26,2.41,14.85,14.85,0,0,1,4.7,4.21,10.58,10.58,0,0,1,1.87,6.33,5.62,5.62,0,0,1-1.63,4.16,6.28,6.28,0,0,1-4.64,1.62,8.89,8.89,0,0,1-3.91-.9,3.14,3.14,0,0,1-1.87-3.07,12.86,12.86,0,0,1,.84-4.1,12.65,12.65,0,0,0,.85-4A4.68,4.68,0,0,0,161,36.09a13.05,13.05,0,0,0-6.38-1.51,24,24,0,0,0-5.48.66,10.06,10.06,0,0,0-5.19,3.32,20.44,20.44,0,0,0-3.85,7.95A54.77,54.77,0,0,0,138.56,61a67,67,0,0,0,.67,9.76,25.52,25.52,0,0,0,2.41,8,13.63,13.63,0,0,0,4.82,5.42,14.45,14.45,0,0,0,8,2,21,21,0,0,0,8.73-1.57,16,16,0,0,0,5.43-3.79,16.73,16.73,0,0,0,3-4.52c.64-1.52,1.12-2.77,1.44-3.73Z"/><path class="cls-4" d="M181.09,34.46h9.28V18.92c.64.24,1.25.44,1.81.6a12,12,0,0,0,2.89.24,10.36,10.36,0,0,0,3.13-.42A7.76,7.76,0,0,0,200.74,18V34.46h17.1v1.69h-17.1v39.4A18.74,18.74,0,0,0,201.4,81a8.22,8.22,0,0,0,1.74,3.25,5.23,5.23,0,0,0,2.35,1.51,9.06,9.06,0,0,0,2.47.36,8.46,8.46,0,0,0,6.81-3.07,15,15,0,0,0,3.32-7l1.68.6a28.13,28.13,0,0,1-1.08,3.5,12.22,12.22,0,0,1-2.23,3.67,11.64,11.64,0,0,1-3.92,2.89,13.87,13.87,0,0,1-6,1.15q-9,0-12.59-3.5t-3.56-9.88V36.15h-9.28Z"/><path class="cls-5" d="M224.59,60.37a23.7,23.7,0,0,1,2.59-11,30.56,30.56,0,0,1,15.67-14.46,24.55,24.55,0,0,1,19.64,0A30.59,30.59,0,0,1,278.15,49.4a23.7,23.7,0,0,1,2.59,11A24.19,24.19,0,0,1,278.33,71,29.78,29.78,0,0,1,263,85.67a25.84,25.84,0,0,1-20.73,0A29.88,29.88,0,0,1,227,71,24.19,24.19,0,0,1,224.59,60.37Zm12,0A55.41,55.41,0,0,0,238,74a20.71,20.71,0,0,0,3.49,7.77,10.05,10.05,0,0,0,5.06,3.56,22.9,22.9,0,0,0,12.29,0,10,10,0,0,0,5.06-3.56,20.86,20.86,0,0,0,3.5-7.77,56,56,0,0,0,1.32-13.61,64.13,64.13,0,0,0-1-12.11,23,23,0,0,0-3-8,11.47,11.47,0,0,0-5-4.39,19.67,19.67,0,0,0-14.22,0,11.36,11.36,0,0,0-5,4.39,22.76,22.76,0,0,0-3,8A64.13,64.13,0,0,0,236.64,60.37Z"/><path class="cls-6" d="M289.42,84.46h9.27V36.15h-9.27V34.46h19.4V46.63h.24a24.91,24.91,0,0,1,1.56-4.1,17.91,17.91,0,0,1,3-4.39,17.2,17.2,0,0,1,4.64-3.56,13.86,13.86,0,0,1,6.57-1.45,11.91,11.91,0,0,1,4.82.91A10.33,10.33,0,0,1,333,36.33,8.32,8.32,0,0,1,335,39.52a11.45,11.45,0,0,1,.6,3.62c0,2.65-.6,4.41-1.8,5.3a7,7,0,0,1-4.22,1.32c-3.54,0-5.3-1.12-5.3-3.37a5.27,5.27,0,0,1,.24-1.75q.24-.66.54-1.32a11,11,0,0,0,.54-1.51,9.25,9.25,0,0,0,.24-2.41q0-3.85-4.21-3.86a7.51,7.51,0,0,0-4.1,1.45,15.05,15.05,0,0,0-4,4.22,26.63,26.63,0,0,0-3.13,6.69,29.27,29.27,0,0,0-1.26,9V84.46h10.48v1.69H289.42Z"/><path class="cls-7" d="M338.58,84.46h9.27V36.15h-9.27V34.46h19.64v50h9.27v1.69H338.58Zm7.83-78.07a6.13,6.13,0,0,1,1.87-4.52,6.39,6.39,0,0,1,9,0,6.13,6.13,0,0,1,1.87,4.52,6.12,6.12,0,0,1-1.87,4.51,6.39,6.39,0,0,1-9,0A6.12,6.12,0,0,1,346.41,6.39Z"/><path class="cls-8" d="M428.46,84.83a16.52,16.52,0,0,1-3.73,2.1,13.7,13.7,0,0,1-5.31.91c-3.85,0-6.64-.83-8.37-2.47a13.1,13.1,0,0,1-3.55-6.93h-.25c-.32.72-.76,1.63-1.32,2.71a10.65,10.65,0,0,1-2.59,3.13,14.29,14.29,0,0,1-4.64,2.53,22.14,22.14,0,0,1-7.35,1,23.06,23.06,0,0,1-8.07-1.15,13,13,0,0,1-4.7-2.83,8.15,8.15,0,0,1-2.23-3.79,15.88,15.88,0,0,1-.54-3.92,12,12,0,0,1,1.68-6.75,12.53,12.53,0,0,1,4.4-4,28.72,28.72,0,0,1,6-2.47q3.3-1,6.68-2c2.65-.88,4.84-1.65,6.57-2.29a11.7,11.7,0,0,0,4-2.35,7.2,7.2,0,0,0,2-3.5,23.38,23.38,0,0,0,.55-5.72,32.31,32.31,0,0,0-.37-5.18,10.92,10.92,0,0,0-1.32-3.92,6.23,6.23,0,0,0-2.77-2.47,11.58,11.58,0,0,0-4.82-.84A13.79,13.79,0,0,0,391.89,36a4.73,4.73,0,0,0-2.59,4.51,22.57,22.57,0,0,0,.36,4,18.45,18.45,0,0,1,.36,2.95,3.78,3.78,0,0,1-1.2,2.84,4.9,4.9,0,0,1-3.5,1.14q-4,0-4.93-1.45a6.52,6.52,0,0,1-1-3.73,11.09,11.09,0,0,1,1.21-5.06,12.79,12.79,0,0,1,3.55-4.28,17.73,17.73,0,0,1,5.9-3,28,28,0,0,1,8.14-1.09,27,27,0,0,1,9.28,1.39,16.05,16.05,0,0,1,6,3.74,13.54,13.54,0,0,1,3.25,5.3,19.63,19.63,0,0,1,1,6.2v30c0,2.34.36,3.9,1.08,4.7A4,4,0,0,0,422,85.43a8.84,8.84,0,0,0,2.78-.48,10.37,10.37,0,0,0,2.77-1.45Zm-21.09-28.2h-.23c-.17,1-1.49,2.09-4,3.13l-9,3.62a13.09,13.09,0,0,0-5.9,4.4,11.65,11.65,0,0,0-2.05,7,20.28,20.28,0,0,0,.36,3.73A9.35,9.35,0,0,0,387.86,82a7.22,7.22,0,0,0,2.71,2.47,9.21,9.21,0,0,0,4.52,1,11.16,11.16,0,0,0,6.44-1.69,11,11,0,0,0,3.74-4.22A17.76,17.76,0,0,0,407,74a38.32,38.32,0,0,0,.42-5.36Z"/></g></g></svg>