<svg xmlns="http://www.w3.org/2000/svg" viewBox="0 0 37.62 34.41"><defs><style>.cls-1{fill:#606060;}</style></defs><title>Logout</title><g id="Layer_2" data-name="Layer 2"><g id="Layer_1-2" data-name="Layer 1"><path class="cls-1" d="M37.62,17.45a6.61,6.61,0,0,1-.82.85c-1.17.85-2.35,1.67-3.54,2.5a1.12,1.12,0,0,1-1.39.09,1.15,1.15,0,0,1-.48-1c0-.52,0-1,0-1.61h-19c-.89,0-1.4-.4-1.42-1.08s.52-1.12,1.42-1.12h19V15c0-.21,0-.42,0-.62a1.09,1.09,0,0,1,1.77-.88c.74.49,1.46,1,2.19,1.54.48.34,1,.65,1.44,1a8.27,8.27,0,0,1,.82.85Z"/><path class="cls-1" d="M17.13,34.32A17.15,17.15,0,0,1,13.43.44c6.75-1.43,12.45.62,17,5.84a20.08,20.08,0,0,1,1.42,2c.5.76.42,1.42-.19,1.79-.44.27-1.15.28-1.67-.61A14.47,14.47,0,0,0,25.73,4.9,14.93,14.93,0,0,0,8.89,4.73a14.63,14.63,0,0,0-5.66,7.08,14.41,14.41,0,0,0-.41,9.5,14.68,14.68,0,0,0,6.45,8.52,14.36,14.36,0,0,0,7.82,2.28,14.68,14.68,0,0,0,11.5-5.32c.58-.68,1-1.45,1.56-2.18a1,1,0,0,1,1.13-.49,1,1,0,0,1,.87.87,1.55,1.55,0,0,1-.2.87,16.9,16.9,0,0,1-11,8c-1.23.28-2.51.35-3.77.52Z"/></g></g></svg>