<svg xmlns="http://www.w3.org/2000/svg" viewBox="0 0 27.53 27.52"><defs><style>.cls-1{fill:#606060;}</style></defs><title>Partner</title><g id="Layer_2" data-name="Layer 2"><g id="Layer_1-2" data-name="Layer 1"><path class="cls-1" d="M27.53,7.59c-.78.8-1.56,1.6-2.35,2.38a.51.51,0,0,0-.16.47,8.6,8.6,0,0,1-1.28,5.25l-.19.29a6.12,6.12,0,0,1,.48.41l1.85,1.84A2.17,2.17,0,0,1,24.42,22l-.07,0a2.25,2.25,0,0,1-.64,1.62,2.12,2.12,0,0,1-1.65.63A2.18,2.18,0,0,1,18.35,26a2.3,2.3,0,0,1-1,1.26,2.13,2.13,0,0,1-2.59-.29c-.33-.32-.63-.66-1-1l-.83.87A2.17,2.17,0,0,1,9.26,26l0,0c-2,.89-3.12.28-3.52-1.84-1.62-.3-2.09-.77-2.28-2.27-.23,0-.46-.06-.68-.12a2.14,2.14,0,0,1-1-3.51c.61-.66,1.26-1.28,1.9-1.91.11-.11.24-.22.37-.33-.06-.1-.09-.17-.13-.23a8.69,8.69,0,0,1-1.32-5.39A.5.5,0,0,0,2.44,10C1.72,9.28,1,8.55.26,7.82c-.35-.36-.35-.61,0-1s.92-.93,1.39-1.39c.29-.29.59-.31.83-.08a.55.55,0,0,1-.07.83L1.28,7.37c.31.29.61.57.9.86S2.94,9,3.34,9.39a1,1,0,0,1,.32.91,7.11,7.11,0,0,0,.85,4.36,8.07,8.07,0,0,0,1.25,1.71c3.22,3.25,6.47,6.48,9.71,9.72A1.07,1.07,0,1,0,17,24.56l-6-6a1.58,1.58,0,0,1-.22-.23.53.53,0,0,1,.74-.75,1.31,1.31,0,0,1,.21.2q3.69,3.68,7.37,7.37a1.16,1.16,0,0,0,.88.4,1,1,0,0,0,.95-.62,1,1,0,0,0-.13-1.12,2.83,2.83,0,0,0-.24-.25l-7.29-7.3c-.36-.35-.41-.65-.16-.9s.56-.22.92.14l7.35,7.36a1.19,1.19,0,0,0,.87.4,1,1,0,0,0,1-.61A1,1,0,0,0,23,21.47a4,4,0,0,0-.35-.37L15.53,14a2.73,2.73,0,0,1-.23-.25A.53.53,0,0,1,16,13a1.58,1.58,0,0,1,.23.22q3.68,3.66,7.33,7.33a1.14,1.14,0,0,0,1,.4,1.07,1.07,0,0,0,.6-1.82l-1.79-1.79L15.79,9.66a.45.45,0,0,0-.49-.14,5.18,5.18,0,0,1-2.89-.17.35.35,0,0,0-.42.11c-.67.69-1.34,1.37-2,2A2.08,2.08,0,0,1,7.82,12a2,2,0,0,1-1.48-1.59A1.92,1.92,0,0,1,6.79,8.6C8.17,7.2,9.58,5.81,11,4.44a10.23,10.23,0,0,1,1.07-.79,1.32,1.32,0,0,0-.24,0l-1.69,0a.71.71,0,0,1-.6-.23L7.65,1.5c-.08-.08-.14-.17-.25-.3-.22.23-.39.43-.58.62l-.74.75q-.54.54-.93.15c-.24-.25-.19-.56.18-.92L7.11,0h.54L10,2.32a.59.59,0,0,0,.53.21,8.77,8.77,0,0,1,3.14.33.54.54,0,0,0,.31,0,9,9,0,0,1,2.43-.36,2.81,2.81,0,0,0,1.05,0c.31-.14.53-.49.79-.75L19.88,0h.59l1.15,1.16,5.91,5.9Zm-4.7,7.52c0-.06.08-.12.12-.19a7.28,7.28,0,0,0,1-4.58,1.07,1.07,0,0,1,.35-1c.69-.64,1.36-1.3,2-1.92L20.18,1.35c-.69.67-1.41,1.36-2.12,2.06a.77.77,0,0,1-.68.24,7.06,7.06,0,0,0-5.75,1.69c-1.4,1.24-2.68,2.6-4,3.93a1,1,0,0,0-.17,1.17,1.08,1.08,0,0,0,1.77.26l2.38-2.38a.61.61,0,0,1,.73-.15,4.24,4.24,0,0,0,4.79-.81.55.55,0,0,1,.83,0,.54.54,0,0,1-.11.82c-.36.31-.75.6-1.11.88Zm-15.91,4c-.7.69-1.43,1.39-2.13,2.12a1.06,1.06,0,0,0,1.48,1.51c.74-.7,1.44-1.45,2.13-2.15ZM9.2,21.4l-2,2.05A1.08,1.08,0,1,0,8.69,25l1.44-1.45.6-.58ZM4.62,16.84l-2,2a1.08,1.08,0,0,0,0,1.56,1.06,1.06,0,0,0,1.56,0l1.49-1.48c.18-.18.38-.35.58-.53Zm6.88,6.85c-.33.33-.67.64-1,1a1,1,0,0,0,0,1.42,1,1,0,0,0,1.38.17,11.75,11.75,0,0,0,1-1.09Z"/><path class="cls-1" d="M3.78,4.54A.53.53,0,0,1,3.24,4,.54.54,0,1,1,4.31,4,.53.53,0,0,1,3.78,4.54Z"/></g></g></svg>