<svg xmlns="http://www.w3.org/2000/svg" viewBox="0 0 19.22 32"><defs><style>.cls-1{fill:#606060;}</style></defs><title>Passcode</title><g id="Layer_2" data-name="Layer 2"><g id="Layer_1-2" data-name="Layer 1"><path class="cls-1" d="M18.29,5.35H1V25.63H18.27c0-.11,0-.23,0-.35V22.61a1.23,1.23,0,0,1,0-.33.4.4,0,0,1,.45-.35.41.41,0,0,1,.42.38,1.82,1.82,0,0,1,0,.33c0,2.43,0,4.86,0,7.3A2,2,0,0,1,17.14,32q-7.48-.06-15,0A2,2,0,0,1,0,29.8C0,21.69,0,13.58,0,5.47,0,4.29,0,3.11,0,1.94A1.81,1.81,0,0,1,2,0H17.25A1.81,1.81,0,0,1,19.2,2v8a1.85,1.85,0,0,1,0,.23.4.4,0,0,1-.41.39.41.41,0,0,1-.47-.37,2.11,2.11,0,0,1,0-.36V5.35ZM.93,26.58V30c0,.76.33,1.09,1.09,1.09H17.21c.75,0,1.08-.33,1.08-1.09V26.91c0-.11,0-.21,0-.33ZM18.29,4.4c0-.84,0-1.67,0-2.49a.9.9,0,0,0-1-1Q9.6.91,1.93.92a.9.9,0,0,0-1,1c0,.74,0,1.48,0,2.21,0,.09,0,.17,0,.27Z"/><path class="cls-1" d="M9.15,16.35l-.47.28c-.29.16-.55.12-.69-.11a.47.47,0,0,1,.22-.67l.51-.32c-.2-.12-.37-.22-.53-.33a.45.45,0,1,1,.46-.78l.5.3v-.6a.45.45,0,0,1,.45-.48c.26,0,.45.19.47.49v.58l.51-.3a.46.46,0,1,1,.47.78l-.25.16-.28.19c.19.12.37.22.54.34a.45.45,0,1,1-.48.77l-.51-.3v.52c0,.35-.19.57-.47.56s-.44-.21-.45-.54Z"/><path class="cls-1" d="M4.27,14.7c0-.22,0-.39,0-.56a.47.47,0,0,1,.46-.5.46.46,0,0,1,.45.5c0,.17,0,.35,0,.57l.54-.31a.44.44,0,0,1,.63.17.44.44,0,0,1-.15.6c-.17.12-.35.22-.57.36l.53.34a.45.45,0,1,1-.46.78c-.17-.08-.32-.18-.52-.3,0,.23,0,.41,0,.58a.46.46,0,0,1-.45.5.47.47,0,0,1-.46-.5c0-.17,0-.34,0-.58l-.46.28c-.3.16-.56.12-.7-.11a.48.48,0,0,1,.22-.67l.51-.32-.56-.34a.44.44,0,0,1-.17-.63.44.44,0,0,1,.63-.15c.09,0,.17.1.26.15Z"/><path class="cls-1" d="M14,16.35l-.5.29a.45.45,0,1,1-.47-.77l.54-.34L13,15.19a.44.44,0,0,1-.18-.62.45.45,0,0,1,.66-.15c.16.08.31.18.51.3,0-.24,0-.43,0-.61a.45.45,0,0,1,.45-.47.43.43,0,0,1,.45.43c0,.19,0,.39,0,.65l.5-.3a.45.45,0,1,1,.46.78c-.15.11-.31.2-.52.33l.51.32a.46.46,0,1,1-.47.79L15,16.35v.53c0,.34-.2.56-.47.55s-.44-.22-.45-.55Z"/><path class="cls-1" d="M19.2,14c0,.23,0,.46,0,.69a.42.42,0,0,1-.45.43.4.4,0,0,1-.44-.4q0-.72,0-1.44a.41.41,0,0,1,.46-.42.43.43,0,0,1,.43.45V14Z"/><path class="cls-1" d="M19.2,18.53c0,.21,0,.42,0,.63a.42.42,0,0,1-.44.46.41.41,0,0,1-.46-.42q0-.69,0-1.38a.42.42,0,0,1,.46-.42.43.43,0,0,1,.44.44c0,.23,0,.46,0,.69Z"/><path class="cls-1" d="M11.07,28.8a1.46,1.46,0,1,1-2.92,0,1.46,1.46,0,1,1,2.92,0Zm-1.46-.57a.55.55,0,0,0-.55.54.55.55,0,1,0,1.1,0A.55.55,0,0,0,9.61,28.23Z"/><path class="cls-1" d="M8.6,3.19H6.89c-.36,0-.57-.19-.57-.46s.21-.45.55-.45h3.47c.33,0,.53.19.52.47s-.2.43-.54.44Z"/><path class="cls-1" d="M12.27,2.28c.42,0,.66.19.62.5s-.23.41-.61.41-.62-.12-.65-.4S11.82,2.28,12.27,2.28Z"/></g></g></svg>