<svg xmlns="http://www.w3.org/2000/svg" viewBox="0 0 27.93 30"><defs><style>.cls-1{fill:#606060;}</style></defs><title>Push Notification</title><g id="Layer_2" data-name="Layer 2"><g id="Layer_1-2" data-name="Layer 1"><path class="cls-1" d="M19.65,8.28h6.18a2,2,0,0,1,2.1,2.1v8.21a2,2,0,0,1-2.1,2.1H19.65v.36c0,2.12,0,4.23,0,6.34A2.42,2.42,0,0,1,17.06,30H2.58A2.42,2.42,0,0,1,0,27.41V2.59A2.42,2.42,0,0,1,2.58,0H17.06a2.42,2.42,0,0,1,2.59,2.58c0,1.77,0,3.53,0,5.3Zm-1,0V2.53A1.38,1.38,0,0,0,17.1,1Q9.84,1,2.56,1A1.38,1.38,0,0,0,1,2.56Q1,15,1,27.44A1.39,1.39,0,0,0,2.56,29H17.1a1.38,1.38,0,0,0,1.52-1.52V20.69H12.46a2,2,0,0,1-2.11-2.12c0-2.72,0-5.45,0-8.17a2,2,0,0,1,2.11-2.12h6.16ZM11.4,10.11c0,.12,0,.17,0,.22v8.34a.92.92,0,0,0,1,1q6.73,0,13.45,0a.94.94,0,0,0,1-1V10.43c0-.09,0-.18,0-.31l-.38.27L19.6,15.31c-.4.29-.52.28-.92,0l-6.79-4.84Zm14.73-.78h-14l.23.2,6.55,4.68a.3.3,0,0,0,.44,0L25.9,9.53A1.19,1.19,0,0,0,26.13,9.33Z"/><path class="cls-1" d="M9.83,27.93a1.55,1.55,0,1,1,1.55-1.58A1.56,1.56,0,0,1,9.83,27.93Zm0-1a.51.51,0,0,0,.52-.5.53.53,0,0,0-.53-.53.53.53,0,0,0-.5.52A.53.53,0,0,0,9.82,26.89Z"/><path class="cls-1" d="M9.81,3.1H7.87c-.39,0-.62-.19-.63-.5s.23-.53.64-.53h3.91c.38,0,.61.19.62.5s-.23.53-.63.53Z"/></g></g></svg>