<svg xmlns="http://www.w3.org/2000/svg" viewBox="0 0 29.85 28.75"><defs><style>.cls-1{fill:none;stroke:#606060;stroke-miterlimit:10;stroke-width:1.7px;}</style></defs><title>Rate</title><g id="Layer_2" data-name="Layer 2"><g id="Layer_1-2" data-name="Layer 1"><path class="cls-1" d="M15.44,1.31l3.87,7.38a.85.85,0,0,0,.66.45l8.27,1a.85.85,0,0,1,.51,1.44l-5.82,6a.86.86,0,0,0-.23.76l1.61,8.18a.85.85,0,0,1-1.22.93l-7.47-3.7a.88.88,0,0,0-.79,0L7.55,27.79a.85.85,0,0,1-1.26-.87L7.5,18.68a.85.85,0,0,0-.27-.75L1.12,12.26a.86.86,0,0,1,.44-1.47l8.22-1.4a.88.88,0,0,0,.63-.48l3.5-7.57A.85.85,0,0,1,15.44,1.31Z"/></g></g></svg>