<svg xmlns="http://www.w3.org/2000/svg" viewBox="0 0 27.37 31.28"><defs><style>.cls-1{fill:#606060;}</style></defs><title>Report an issue</title><g id="Layer_2" data-name="Layer 2"><g id="Layer_1-2" data-name="Layer 1"><path class="cls-1" d="M12,31.28a1.36,1.36,0,0,1-1-1.52c0-.49,0-1,0-1.46A1.19,1.19,0,0,1,12.36,27h3.36c1,0,1.41.42,1.44,1.41,0,0,0,.08,0,.16l1.11-.07a7.82,7.82,0,0,0,2.43-.56,3.62,3.62,0,0,0,2.17-2.52c.17-.65.24-1.33.37-2.05h-1c-.65,0-.83-.19-.83-.84V12.32c0-.31,0-.63,0-1,0-.49.22-.7.71-.71h.92l.1,0a9.25,9.25,0,0,0-4.14-7.77,9.07,9.07,0,0,0-9.94-.51,9.31,9.31,0,0,0-5,8.33h1c.56,0,.77.21.77.75V22.59c0,.56-.21.78-.76.76a18.86,18.86,0,0,1-2.61-.15A3,3,0,0,1,.07,20.49,7.57,7.57,0,0,1,0,19.54c0-1.73,0-3.46,0-5.19a5.51,5.51,0,0,1,.27-1.67A3,3,0,0,1,2.7,10.75c.22,0,.29-.11.3-.34A10.51,10.51,0,0,1,7.68,1.85,10.19,10.19,0,0,1,14.35,0a10.42,10.42,0,0,1,7.57,3.83,10.46,10.46,0,0,1,2.46,6.44c0,.1,0,.2,0,.31v0a10.39,10.39,0,0,1,1.19.41,3,3,0,0,1,1.75,2.76c0,2.2.05,4.4,0,6.6a3,3,0,0,1-2.53,2.81c-.28.06-.39.15-.41.46a7.86,7.86,0,0,1-.68,3,4.74,4.74,0,0,1-3.36,2.65c-1,.23-2.06.34-3.14.51a1.34,1.34,0,0,1-.92,1.46Zm-7.3-9.13V11.77c-.59,0-1.18,0-1.75.1a1.88,1.88,0,0,0-1.7,1.79c-.07,1-.05,2-.06,3s0,2.18,0,3.27A2,2,0,0,0,2.48,22,5.83,5.83,0,0,0,4.68,22.15Zm18,0c.5,0,1,0,1.43,0a2,2,0,0,0,2.05-2.21c0-1.91,0-3.82.05-5.74a3.15,3.15,0,0,0-.06-.61A1.94,1.94,0,0,0,24.78,12a7,7,0,0,0-2.1-.14ZM12.24,30.1h3.2c.62,0,.53.09.54-.53V28.18H12.24Z"/></g></g></svg>