<svg xmlns="http://www.w3.org/2000/svg" viewBox="0 0 29.96 27.25"><defs><style>.cls-1,.cls-2{fill:#606060;}.cls-1{stroke:#606060;stroke-miterlimit:10;stroke-width:0.5px;}</style></defs><title>Safty center</title><g id="Layer_2" data-name="Layer 2"><g id="Layer_1-2" data-name="Layer 1"><path class="cls-1" d="M18.41,14.53H11.74c-.35,0-.45-.11-.45-.46a6.44,6.44,0,0,1,5-6.18,6.3,6.3,0,0,1,1.05-.14,12.33,12.33,0,0,1,3.32.17,6.44,6.44,0,0,1,4.79,5.13,8.78,8.78,0,0,1,.09,1c0,.32-.13.46-.44.46Zm6.49-.69c0-.25-.06-.47-.1-.69a5.74,5.74,0,0,0-4.73-4.66,6.09,6.09,0,0,0-.85-.07,17.43,17.43,0,0,0-2.29.06,5.67,5.67,0,0,0-4.83,4.43c-.07.3-.1.61-.15.93Z"/><path class="cls-1" d="M21.82,3.64A3.4,3.4,0,1,1,18.37.25,3.39,3.39,0,0,1,21.82,3.64ZM18.43.93a2.72,2.72,0,1,0,2.72,2.78A2.72,2.72,0,0,0,18.43.93Z"/><path class="cls-2" d="M30,18.7a2.78,2.78,0,0,1-1,1.38c-1.69,1.5-3.37,3-5,4.53A5.43,5.43,0,0,1,20.9,26c-2.39.32-4.78.69-7.17,1-2.08.29-1.86.37-3.72-.36l-.63-.24L6.16,25.22l-.32-.11s0,0,0,.06c0,.95-.38,1.26-1.32,1.26-1.1,0-2.2,0-3.31,0A1,1,0,0,1,0,25.26v-11A1.07,1.07,0,0,1,1.19,13H4.61a1.06,1.06,0,0,1,1.18,1.17v1a10.35,10.35,0,0,1,1.28.22c.57.17,1.13.41,1.69.63a3.15,3.15,0,0,1,.51.28,8.17,8.17,0,0,0,4.28,1.27c1.46.06,2.92.2,4.36.39a2.55,2.55,0,0,1,2.21,2.38c0,.22.09.31.31.31s.53,0,.79,0a.74.74,0,0,0,.4-.14c1.82-1.21,3.64-2.44,5.47-3.65a1.82,1.82,0,0,1,2.81,1,.67.67,0,0,0,.06.12ZM5.79,16.12c0,.36,0,.69,0,1a.44.44,0,1,1-.87,0,1.76,1.76,0,0,1,0-.23c0-.88,0-1.76,0-2.63,0-.29-.09-.38-.37-.38H1.25c-.27,0-.38.08-.38.37,0,3.64,0,7.27,0,10.91,0,.28.08.38.37.37h3.3c.37,0,.37,0,.38-.38V19.36a1.5,1.5,0,0,1,0-.3.42.42,0,0,1,.43-.36.42.42,0,0,1,.43.36,1.43,1.43,0,0,1,0,.29c0,1.52,0,3,0,4.54a.31.31,0,0,0,.25.35c1.75.66,3.49,1.34,5.24,2a2.49,2.49,0,0,0,1.15.12c2.81-.38,5.63-.81,8.44-1.2A4.26,4.26,0,0,0,23.34,24c.73-.69,1.49-1.35,2.24-2l3.11-2.8a.94.94,0,0,0,.36-1,1,1,0,0,0-1.53-.52c-1.87,1.25-3.73,2.51-5.61,3.75a1.31,1.31,0,0,1-.65.17c-.53,0-1.05-.09-1.58-.07-1.31.06-2.62.17-3.94.25L11,22a1.7,1.7,0,0,1-1.37-.61.44.44,0,0,1,0-.63.44.44,0,0,1,.65,0,1.11,1.11,0,0,0,.92.34l7.09-.44.92-.06a1.74,1.74,0,0,0-1.6-1.84c-1.63-.14-3.26-.32-4.89-.41a7.25,7.25,0,0,1-3.22-.94c-.41-.24-.83-.47-1.25-.69A5.83,5.83,0,0,0,5.79,16.12Z"/><path class="cls-2" d="M2.84,21.67a1.55,1.55,0,0,1,1.53,1.56,1.55,1.55,0,1,1-3.1,0A1.53,1.53,0,0,1,2.84,21.67Zm-.69,1.54a.66.66,0,0,0,.65.68.67.67,0,1,0,0-1.34A.66.66,0,0,0,2.15,23.21Z"/></g></g></svg>