<svg xmlns="http://www.w3.org/2000/svg" viewBox="0 0 23.15 26.27"><defs><style>.cls-1{fill:#606060;}</style></defs><title>Terms and Conditions</title><g id="Layer_2" data-name="Layer 2"><g id="Layer_1-2" data-name="Layer 1"><path class="cls-1" d="M1.41,26.27a4.53,4.53,0,0,1-.74-.34A1.52,1.52,0,0,1,0,24.74c0-.11,0-.22,0-.33V3.29A1.91,1.91,0,0,1,.28,2.17a1.59,1.59,0,0,1,1.34-.73c.76,0,1.52,0,2.28,0,.29,0,.45.15.45.38s-.17.39-.45.39H1.78a.9.9,0,0,0-1,1V24.51a.9.9,0,0,0,1,1h12.6a1.34,1.34,0,0,0,.2,0c.22,0,.42,0,.51.26s-.06.39-.24.51Z"/><path class="cls-1" d="M17.67,26.27,17,26.13a4.94,4.94,0,1,1,1.81.1.74.74,0,0,0-.14,0ZM14,21.33a4.18,4.18,0,1,0,4.16-4.19A4.18,4.18,0,0,0,14,21.33Z"/><path class="cls-1" d="M13.42,0a1.29,1.29,0,0,1,.92,1.44c0,.3,0,.6,0,.9a1.17,1.17,0,0,1-1.28,1.29H7.62c-.35,0-.69,0-1,0A1.15,1.15,0,0,1,5.38,2.42c0-.32,0-.65,0-1A1.3,1.3,0,0,1,6.28,0ZM9.85.77H6.62c-.33,0-.47.13-.47.47s0,.76,0,1.15.13.47.47.47h6.46c.34,0,.48-.14.48-.48s0-.74,0-1.11-.13-.5-.51-.5Z"/><path class="cls-1" d="M19.71,9v5.83a1.76,1.76,0,0,1,0,.23.4.4,0,0,1-.41.4c-.21,0-.34-.17-.36-.42V3.35a1.82,1.82,0,0,0,0-.33A.88.88,0,0,0,18,2.2H15.73a.38.38,0,0,1-.37-.41.37.37,0,0,1,.39-.36c.81,0,1.62,0,2.44,0a1.65,1.65,0,0,1,1.52,1.72c0,1.09,0,2.19,0,3.28Z"/><path class="cls-1" d="M9.86,13.45H3.58a.35.35,0,0,1-.34-.36.36.36,0,0,1,.3-.39,1.11,1.11,0,0,1,.26,0H16.13a.37.37,0,0,1,.34.39.36.36,0,0,1-.35.37H9.86Z"/><path class="cls-1" d="M9.85,10.39h-6a1.83,1.83,0,0,1-.33,0A.35.35,0,0,1,3.24,10a.34.34,0,0,1,.31-.35,1,1,0,0,1,.25,0q6.06,0,12.11,0a1,1,0,0,1,.25,0,.35.35,0,0,1,.31.35.35.35,0,0,1-.28.38,1.83,1.83,0,0,1-.33,0Z"/><path class="cls-1" d="M9.86,15.74h6c.4,0,.58.11.58.37s-.19.4-.6.4H3.59a.37.37,0,0,1-.35-.4.36.36,0,0,1,.36-.36H9.86Z"/><path class="cls-1" d="M7.88,19.56H3.58a.35.35,0,0,1-.34-.36.36.36,0,0,1,.3-.39,1.31,1.31,0,0,1,.28,0H12c.39,0,.58.12.59.38s-.19.39-.58.39Z"/><path class="cls-1" d="M6.75,5.49H9.7c.08,0,.18,0,.23,0s.27.2.28.31a.59.59,0,0,1-.2.39c0,.06-.19,0-.29,0H3.62a.38.38,0,0,1-.38-.4.37.37,0,0,1,.39-.36H6.75Z"/><path class="cls-1" d="M17.83,22.39l1.76-2.18c.2-.26.4-.51.61-.76a.4.4,0,0,1,.57-.08.39.39,0,0,1,0,.57l-2.66,3.28a.39.39,0,0,1-.69,0l-1.13-1.58a.4.4,0,0,1,0-.59c.2-.15.41-.1.59.15S17.52,22,17.83,22.39Z"/></g></g></svg>