<svg xmlns="http://www.w3.org/2000/svg" viewBox="0 0 33 33"><defs><style>.cls-1{fill:#606060;}</style></defs><title>Two-step verification</title><g id="Layer_2" data-name="Layer 2"><g id="Layer_1-2" data-name="Layer 1"><path class="cls-1" d="M15.47,33c-.6-.09-1.21-.15-1.81-.26a16,16,0,0,1-8.29-4.07,16.07,16.07,0,0,1-5.14-9.5A16,16,0,0,1,2.84,7.27,16.1,16.1,0,0,1,13.09.36c.68-.15,1.38-.2,2.07-.3L15.47,0h2.07a1,1,0,0,0,.24.05,15.85,15.85,0,0,1,7.66,2.59,16.25,16.25,0,0,1,7.31,11c.11.6.17,1.21.25,1.82v2.06c0,.08,0,.16,0,.25a16.12,16.12,0,0,1-4,9.53,16.19,16.19,0,0,1-9.61,5.44c-.6.1-1.21.16-1.81.25ZM1,16.49A15.47,15.47,0,1,0,16.5,1,15.5,15.5,0,0,0,1,16.49Z"/><path class="cls-1" d="M8.75,13.38V10A2.59,2.59,0,0,1,11.5,7.22h10A2.6,2.6,0,0,1,24.23,10c0,2.13,0,4.25,0,6.38a9.29,9.29,0,0,1-2.8,6.8q-1.51,1.53-3,3a2.57,2.57,0,0,1-3.81,0l-3.06-3.06a9.26,9.26,0,0,1-2.78-6.74Zm7.76-5.13H11.38A1.52,1.52,0,0,0,9.79,9.83c0,2.31,0,4.62,0,6.93a7.55,7.55,0,0,0,2,5.08c1.13,1.25,2.35,2.42,3.54,3.61a1.54,1.54,0,0,0,2.34,0c1-1,2.05-2,3.07-3.08a8.24,8.24,0,0,0,2.47-6c0-2.13,0-4.27,0-6.41a1.57,1.57,0,0,0-1.7-1.71Z"/><path class="cls-1" d="M15.88,18.26c.61-1,1.2-1.94,1.78-2.9l1.88-3a1.94,1.94,0,0,1,.15-.24.48.48,0,0,1,.66-.14.5.5,0,0,1,.21.67c-.16.29-.34.57-.51.85l-3.53,5.73c-.32.52-.62.56-1,.13-1-.94-1.89-1.89-2.84-2.84a.88.88,0,0,1-.24-.34.47.47,0,0,1,.23-.58.5.5,0,0,1,.67.12c.77.77,1.54,1.55,2.32,2.32Z"/></g></g></svg>